<?xml version="1.0" encoding="utf-8"?>
<!-- Svg Vector Icons : http://www.onlinewebfonts.com/icon -->
<!DOCTYPE svg PUBLIC "-//W3C//DTD SVG 1.1//EN" "http://www.w3.org/Graphics/SVG/1.1/DTD/svg11.dtd">
<svg version="1.1" xmlns="http://www.w3.org/2000/svg" xmlns:xlink="http://www.w3.org/1999/xlink" x="0px" y="0px" viewBox="0 0 1000 1000" enable-background="new 0 0 1000 1000" xml:space="preserve">
<metadata> Svg Vector Icons : http://www.onlinewebfonts.com/icon </metadata>
<g><g transform="translate(0.000000,511.000000) scale(0.100000,-0.100000)"><path d="M2547.1,4986.4c-153.4-43.8-243.3-100.8-350.7-221.4c-223.6-254.3-219.2-651,11-905.3c131.5-144.7,260.8-206,473.5-221.4l168.8-11l438.4-526.1l436.2-526.1l-1142-13.1c-1271.4-13.2-1258.2-13.2-1560.7-168.8c-208.2-107.4-477.9-377-585.3-585.3c-168.8-326.6-160-184.1-160-2564.7c0-2354.2-6.6-2227.1,146.9-2553.7c72.3-149.1,124.9-221.4,267.4-363.9c245.5-247.7,495.4-366.1,870.2-414.3l103-13.1l8.8-223.6c8.8-252.1,46-344.2,175.4-420.9c61.4-37.3,111.8-43.8,346.3-43.8c234.6,0,285,6.6,346.3,43.8c43.8,26.3,142.5,153.4,269.6,344.2l201.7,302.5H5000h1988.2l201.7-302.5c127.1-190.7,225.8-317.9,269.6-344.2c61.4-37.3,111.8-43.8,346.3-43.8c234.6,0,285,6.6,346.3,43.8c129.3,76.7,166.6,168.8,175.4,420.9l8.8,223.6l103,13.1c206,26.3,324.4,61.4,506.4,146.9c263,125,506.3,368.3,631.3,631.3c153.4,326.6,146.9,199.5,146.9,2553.7c0,2380.5,8.8,2238-160,2564.7c-114,219.2-379.2,482.2-596.2,589.6c-324.4,157.8-243.3,151.2-1900.5,164.4l-1495,13.1l438.4,526.1l438.4,526.1l168.8,11c212.6,15.4,342,76.7,473.5,221.4c168.8,188.5,219.2,449.4,133.7,699.2c-54.8,166.6-238.9,350.7-405.5,405.5c-269.6,92.1-528.3,32.9-725.5-162.2c-175.4-177.5-212.6-311.3-188.5-688.3c4.4-50.4-103-190.7-609.4-804.5c-337.6-407.7-629.1-743.1-646.7-743.1c-17.5,0-309.1,335.4-646.6,743.1l-613.8,740.9l8.8,197.3c11,274-30.7,392.4-192.9,554.6C3022.8,4984.2,2781.7,5049.9,2547.1,4986.4z M5657.6,1459.4c743.1-76.7,1036.8-122.8,1157.4-181.9c127.1-61.4,245.5-199.5,287.2-335.4C7141.6,810.6,7209.6,370,7249-4.8c81.1-784.7-15.3-2172.3-175.4-2527.4c-54.8-120.6-157.8-234.6-258.7-287.1c-116.2-59.2-894.3-160-1617.7-208.2c-495.4-32.9-1797.5-13.2-2257.8,32.9c-1056.6,107.4-1207.8,146.9-1348.1,337.6c-87.7,122.8-107.4,184.1-162.2,519.5c-149.1,892.2-149.1,1817.2-2.2,2740c50.4,309.1,72.3,383.6,157.8,508.6c89.9,131.5,219.2,201.7,449.4,238.9c225.8,35.1,894.3,109.6,1256,138.1C3689.2,1520.8,5258.7,1501.1,5657.6,1459.4z M8691.4,784.3c118.4-35.1,280.6-197.3,315.6-315.6c63.6-219.2,8.8-447.2-140.3-578.7c-107.4-92.1-212.6-131.5-361.7-131.5c-561.2,0-732.1,756.3-228,1006.1C8377.9,815,8557.6,823.8,8691.4,784.3z M8744-1346.3c127.1-63.6,186.3-127.2,243.3-254.3c92-201.7,48.2-436.2-107.4-591.8c-331-333.2-900.9-100.8-898.7,366.1c0,138.1,54.8,287.1,138.1,377C8259.5-1298.1,8551.1-1249.9,8744-1346.3z"/></g></g>
</svg>